# xmcd
#
# Track frame offsets:
#	150
#	16053
#	36722
#	50381
#	62115
#	78424
#	100121
#	114654
#	132777
#	149194
#	166238
#	180838
#	194872
#	219760
#	240780
#	251690
#	268647
#	281873
#	304851
#	325759
#	335392
#
# Disc length: 4687 seconds
#
# Revision: 1
# Processed by: cddbd v1.4PL0 Copyright (c) Steve Scherf et al.
# Submitted via: audiograbber 1.81.01
#
DISCID=31124d15
DTITLE=Various Artist - Blues på Svenska - Metronomes Poeter 1964-1980
DYEAR=1980
DGENRE=Blues
TTITLE0=Pugh Rogefeldt - Här kommer natten
TTITLE1=Pugh Rogefeldt - Små lätta moln
TTITLE2=Cornelis Wreeswijk - Deirdres Samba
TTITLE3=Cornelis Wreeswijk - Ballad på en soptipp
TTITLE4=John Holm - Maria, många mil och år från här
TTITLE5=John Holm - Ett enskilt rum på Sabbatsberg
TTITLE6=Ola Magnell - Påtalåten
TTITLE7=Ola Magnell - Höstkänning
TTITLE8=Fred Åkerström - Käraste bröder
TTITLE9=Fred Åkerström - Jag ger dig min morgon
TTITLE10=Bernt Staf - Familjelycka
TTITLE11=Bernt Staf - Ledsagarinna till lidelse
TTITLE12=Rolf Wikström - Den åttonde dagen
TTITLE13=Rolf Wikström - Sen såg jag dig
TTITLE14=Turid - Tidig Stockholmsmorgon
TTITLE15=Turid - Brevet
TTITLE16=Marie Bergman - Ingen kommer undan politiken
TTITLE17=Marie Bergman - Dagar
TTITLE18=Jojje Wadenius - Mitt lilla barn
TTITLE19=Jojje Wadenius - Kråkbegravningen
TTITLE20=Kenta Gustavsson - Just idag är jag stark
EXTD=
EXTT0=
EXTT1=
EXTT2=
EXTT3=
EXTT4=
EXTT5=
EXTT6=
EXTT7=
EXTT8=
EXTT9=
EXTT10=
EXTT11=
EXTT12=
EXTT13=
EXTT14=
EXTT15=
EXTT16=
EXTT17=
EXTT18=
EXTT19=
EXTT20=
PLAYORDER=
